<svg viewBox="0 0 240 64" fill="none" xmlns="http://www.w3.org/2000/svg">
  <!-- Cloud icon -->
  <g transform="translate(0, 0)">
    <path 
      d="M52 34c0-7.732-6.268-14-14-14-1.384 0-2.72.201-3.984.574C31.216 14.084 25.148 9 18 9c-8.837 0-16 7.163-16 16 0 1.13.117 2.233.34 3.296C2.34 29.296 2 30.608 2 32c0 5.523 4.477 10 10 10h2c0 5.523 4.477 10 10 10h24c7.732 0 14-6.268 14-14 0-1.384-.201-2.72-.574-3.984"
      stroke="#22D3EE" 
      stroke-width="3.5" 
      stroke-linecap="round"
      stroke-linejoin="round"
    />
    <path 
      d="M24 32L32 24L40 32L32 40Z" 
      stroke="#22D3EE" 
      stroke-width="2.5" 
      stroke-linecap="round"
      stroke-linejoin="round"
    />
    <circle cx="24" cy="32" r="3.5" fill="#22D3EE"/>
    <circle cx="32" cy="24" r="3.5" fill="#22D3EE"/>
    <circle cx="40" cy="32" r="3.5" fill="#22D3EE"/>
    <circle cx="32" cy="40" r="3.5" fill="#22D3EE"/>
  </g>
  <!-- Text: Cloud -->
  <text x="72" y="30" font-family="Inter, system-ui, sans-serif" font-size="22" font-weight="500" fill="#22D3EE">Cloud</text>
  <!-- Text: Fabric -->
  <text x="72" y="52" font-family="Inter, system-ui, sans-serif" font-size="22" font-weight="500" fill="#22D3EE">Fabric</text>
</svg>
